<?xml version="1.0" encoding="UTF-8" standalone="no"?>
<!-- Uploaded to: SVG Repo, www.svgrepo.com, Generator: SVG Repo Mixer Tools -->

<svg
   fill="#000000"
   height="800px"
   width="800px"
   version="1.1"
   id="Capa_1"
   viewBox="0 0 366.559 366.559"
   xml:space="preserve"
   sodipodi:docname="icon.svg"
   inkscape:version="1.2.2 (b0a8486541, 2022-12-01)"
   xmlns:inkscape="http://www.inkscape.org/namespaces/inkscape"
   xmlns:sodipodi="http://sodipodi.sourceforge.net/DTD/sodipodi-0.dtd"
   xmlns="http://www.w3.org/2000/svg"
   xmlns:svg="http://www.w3.org/2000/svg"><defs
   id="defs15" /><sodipodi:namedview
   id="namedview13"
   pagecolor="#000000"
   bordercolor="#000000"
   borderopacity="0.25"
   inkscape:showpageshadow="2"
   inkscape:pageopacity="0"
   inkscape:pagecheckerboard="0"
   inkscape:deskcolor="#d1d1d1"
   showgrid="false"
   inkscape:zoom="0.985"
   inkscape:cx="400"
   inkscape:cy="237.56345"
   inkscape:window-width="1920"
   inkscape:window-height="1011"
   inkscape:window-x="0"
   inkscape:window-y="0"
   inkscape:window-maximized="1"
   inkscape:current-layer="Capa_1" />
<g
   id="g10">
	<path
   d="M254.031,192.313h-2.761c-4.316-25.05-5.012-50.752-19.972-65.424c-14.656-14.37-33.821-18.816-46.536-30.446v-5.444   c1.165-0.558,1.977-1.738,1.977-3.113c0-1.375-0.812-2.557-1.977-3.114v-2.315c0.303-0.348,0.493-0.797,0.493-1.295   c0-1.093-1.977-6.725-1.977-6.725s-1.978,5.632-1.978,6.725c0,0.498,0.191,0.948,0.495,1.296v2.314   c-1.165,0.558-1.979,1.739-1.979,3.115c0,1.375,0.813,2.556,1.979,3.113v5.443c-12.717,11.63-31.882,16.077-46.536,30.446   c-14.961,14.672-15.655,40.374-19.972,65.424h-2.761l-4.748,12.262h151L254.031,192.313z"
   id="path2" />
	<path
   d="M28.779,214.139v152.42h109.5v-81.615c0-19.889,44.998-32.922,44.998-32.922s45.002,13.033,45.002,32.922v81.615h109.5   v-152.42H28.779z"
   id="path4" />
	<path
   d="M289.385,204.25h40.965v-50.418h3.867v-12.604h-7.734V92.242h7.734V79.638h-12.19V47.689   c0-5.862-4.149-10.753-9.669-11.902v-7.967c1.96-0.935,3.32-2.93,3.32-5.242s-1.361-4.307-3.32-5.242v-3.873   c0.51-0.583,0.83-1.338,0.83-2.175c0-1.834-3.321-11.29-3.321-11.29s-3.319,9.456-3.319,11.29c0,0.836,0.32,1.591,0.83,2.175v3.872   c-1.959,0.935-3.32,2.93-3.32,5.242s1.361,4.308,3.32,5.242v7.966c-5.52,1.149-9.669,6.039-9.669,11.902v31.948h-12.19v12.604   h7.734v48.986h-7.734v12.604h3.867V204.25z"
   id="path6" />
	<path
   d="M36.208,204.25h40.965v-50.418h3.867v-12.604h-7.734V92.242h7.734V79.638H68.85V47.689c0-5.862-4.148-10.753-9.669-11.902   v-7.967c1.959-0.935,3.32-2.93,3.32-5.242s-1.361-4.307-3.32-5.242v-3.873c0.51-0.583,0.83-1.338,0.83-2.175   C60.011,9.456,56.689,0,56.689,0S53.37,9.456,53.37,11.29c0,0.836,0.32,1.591,0.83,2.175v3.872c-1.959,0.935-3.32,2.93-3.32,5.242   s1.361,4.308,3.32,5.242v7.966c-5.521,1.149-9.669,6.039-9.669,11.902v31.948h-12.19v12.604h7.734v48.986h-7.734v12.604h3.867   V204.25z"
   id="path8" />
</g>
<path
   style="fill:#ffffff;stroke-width:1"
   d="M 79.187817,390.35533 V 335.53299 H 75.126904 71.06599 v -13.19796 -13.19797 h 8.629441 8.629442 V 254.82234 200.50761 H 79.695431 71.06599 v -13.19797 -13.19796 h 13.141948 13.141948 l 0.309829,-38.32488 0.309828,-38.324871 3.045687,-5.505471 c 3.21845,-5.817772 8.5328,-10.386327 14.29335,-12.287479 l 3.47315,-1.146242 v -8.681469 c 0,-8.548457 -0.0562,-8.743716 -3.6704,-12.744156 -3.3311,-3.687132 -3.62327,-4.480786 -3.16059,-8.585598 0.36687,-3.254929 1.39585,-5.437095 3.67039,-7.783819 2.53429,-2.614729 3.1606,-4.119558 3.1606,-7.594039 0,-2.383222 -0.48766,-5.244322 -1.08368,-6.358 -0.84228,-1.573817 -0.35708,-4.511197 2.17818,-13.186547 1.79402,-6.1389232 3.61214,-10.7941447 4.04027,-10.3449368 0.42812,0.4492078 1.97496,4.7705477 3.43741,9.6029768 2.30104,7.603353 2.56906,9.86489 1.99084,16.798264 -0.66417,7.963937 -0.64943,8.03077 2.45424,11.13444 5.45395,5.453957 5.49968,11.41777 0.12871,16.788734 -2.86052,2.860523 -2.99369,3.390535 -2.99369,11.914728 v 8.921034 l 4.48843,1.714147 c 2.5616,0.978285 6.29935,3.678767 8.70686,6.290605 7.68122,8.333135 7.54888,7.501034 7.93357,49.885319 l 0.34323,37.81726 h 13.12182 13.12183 v 13.19796 13.19797 h -8.62945 -8.62944 v 54.31473 54.31472 h 8.62944 8.62945 v 13.19797 13.19796 h -4.56853 -4.56853 v 54.82234 54.82233 H 123.35025 79.187817 Z"
   id="path190"
   transform="scale(0.45819875)" /><path
   style="fill:#ffffff;stroke-width:1"
   d="m 236.54577,445.43147 c -0.001,-0.41878 2.15622,-6.33651 4.7946,-13.15051 4.5673,-11.79566 4.9437,-12.40351 7.85833,-12.69035 l 3.06127,-0.30127 1.69617,-11.16751 c 0.9329,-6.14213 2.92675,-19.39087 4.43079,-29.44163 7.88958,-52.72215 16.80874,-78.61558 33.39655,-96.95431 11.64968,-12.87936 28.89068,-25.0299 56.94748,-40.13354 23.39601,-12.59463 31.76132,-17.61772 40.86295,-24.53684 l 7.3604,-5.59544 v -6.84172 c 0,-5.55239 -0.38263,-7.18801 -2.03045,-8.67926 -2.5947,-2.34818 -2.58823,-5.61743 0.0167,-8.41345 1.58062,-1.6966 2.00595,-3.41753 1.86645,-7.55184 -0.17687,-5.24259 1.81908,-13.98395 3.19304,-13.98395 1.37396,0 3.36991,8.74136 3.19302,13.98395 -0.1395,4.13431 0.28583,5.85524 1.86645,7.55184 1.12592,1.20853 2.04713,2.77497 2.04713,3.48097 0,1.94524 -2.24176,6.45532 -3.20865,6.45532 -0.46874,0 -0.85226,3.14958 -0.85226,6.99907 v 6.99907 l 7.3604,5.589 c 9.1994,6.98541 16.39477,11.34648 36.29442,21.99779 46.90411,25.10551 64.31162,40.03128 76.14983,65.29334 8.84826,18.88171 12.77981,35.22997 20.13301,83.71756 l 4.7363,31.23158 3.07146,0.30127 c 2.92779,0.28718 3.29582,0.88073 7.86851,12.69035 2.63839,6.814 4.79596,12.73173 4.79461,13.15051 -0.001,0.41878 -73.55575,0.76142 -163.45423,0.76142 -89.89848,0 -163.45288,-0.34264 -163.45423,-0.76142 z"
   id="path192"
   transform="scale(0.45819875)" /><path
   style="fill:#ffffff;stroke-width:1"
   d="m 632.48731,390.35533 v -54.82234 h -4.56853 -4.56853 v -13.19796 -13.19797 h 8.62945 8.62944 v -54.31472 -54.31473 h -8.62944 -8.62945 v -13.19797 -13.19796 h 13.12183 13.12182 l 0.32995,-37.81726 c 0.31307,-35.88178 0.43882,-38.051079 2.45702,-42.385791 2.58931,-5.561361 9.91329,-12.490926 14.96343,-14.157624 l 3.72169,-1.228268 v -8.980228 c 0,-8.589736 -0.13018,-9.110405 -2.99369,-11.973922 -5.37097,-5.370964 -5.32524,-11.334777 0.12871,-16.788734 3.10367,-3.10367 3.11841,-3.170503 2.45424,-11.13444 -0.57822,-6.933374 -0.3102,-9.194911 1.99084,-16.798264 1.46245,-4.8324291 3.00929,-9.153769 3.43741,-9.6029768 0.42813,-0.4492079 2.24625,4.2060136 4.04027,10.3449368 2.53526,8.67535 3.02046,11.61273 2.17818,13.186547 -0.59602,1.113678 -1.08368,3.974778 -1.08368,6.358 0,3.474481 0.62631,4.97931 3.1606,7.594039 2.27454,2.346724 3.30352,4.52889 3.67039,7.783819 0.46268,4.104812 0.17051,4.898466 -3.16059,8.585598 -3.61416,4.00044 -3.6704,4.195699 -3.6704,12.744156 v 8.681469 l 3.47315,1.146242 c 5.76055,1.901152 11.0749,6.469707 14.29335,12.287479 l 3.04569,5.505471 0.30983,38.324871 0.30982,38.32488 h 13.14195 13.14195 v 13.19796 13.19797 h -8.62944 -8.62944 v 54.31473 54.31472 h 8.62944 8.62944 v 13.19797 13.19796 h -4.06091 -4.06092 v 54.82234 54.82233 h -44.16243 -44.16244 z"
   id="path194"
   transform="scale(0.45819875)" /><path
   style="fill:#ffffff;stroke-width:1"
   d="M 62.944162,633.50254 V 467.51269 H 400 737.05584 V 633.50254 799.49239 H 617.78715 498.51846 l -0.27446,-93.14721 -0.27446,-93.14721 -2.79796,-5.69737 C 488.40243,593.71683 472.02677,580.60599 445.17766,567.47396 428.60342,559.36742 404.08457,549.74619 400,549.74619 c -4.08457,0 -28.60342,9.62123 -45.17766,17.72777 -26.84911,13.13203 -43.22477,26.24287 -49.99392,40.02664 l -2.79796,5.69737 -0.27446,93.14721 -0.27446,93.14721 H 182.21285 62.944162 Z"
   id="path196"
   transform="scale(0.45819875)" /></svg>
